<?xml version="1.0" standalone="no"?>
<!DOCTYPE svg PUBLIC "-//W3C//DTD SVG 20010904//EN"
 "http://www.w3.org/TR/2001/REC-SVG-20010904/DTD/svg10.dtd">
<svg version="1.0" xmlns="http://www.w3.org/2000/svg"
 width="1864.000000pt" height="1130.000000pt" viewBox="0 0 1864.000000 1130.000000"
 preserveAspectRatio="xMidYMid meet">

<g transform="translate(0.000000,1130.000000) scale(0.100000,-0.100000)"
fill="#000000" stroke="none">
<path d="M7530 11218 c0 -7 9 -24 20 -38 27 -35 25 -47 -11 -55 -37 -8 -46
-27 -25 -57 22 -31 20 -51 -7 -85 -74 -90 -81 -121 -102 -469 -18 -304 -18
-306 -100 -714 -8 -42 -15 -87 -15 -100 0 -27 -82 -294 -108 -350 -22 -48 -28
-205 -12 -292 10 -52 10 -74 2 -91 -6 -12 -16 -35 -22 -50 l-10 -28 -31 22
c-44 31 -55 15 -35 -53 8 -30 28 -72 42 -94 15 -21 57 -95 94 -164 37 -69 88
-162 113 -206 56 -100 66 -143 40 -166 -17 -16 -28 -7 -210 160 -105 97 -216
197 -246 222 -73 60 -102 118 -88 180 17 79 -13 186 -68 245 -15 17 -45 56
-66 88 -20 31 -63 81 -95 110 -32 28 -109 122 -171 207 -61 85 -130 178 -153
205 -68 82 -115 153 -149 223 -41 88 -136 221 -181 256 -50 37 -69 25 -96 -62
-28 -88 -29 -246 -2 -396 l19 -109 -21 25 c-12 14 -65 79 -118 145 -164 203
-186 223 -538 478 -133 96 -294 185 -335 185 -33 0 -55 -22 -65 -65 -9 -38 -5
-49 65 -195 77 -160 116 -265 190 -505 24 -77 49 -153 55 -170 25 -66 90 -351
104 -462 9 -65 19 -127 22 -139 9 -35 -82 -62 -271 -79 -238 -22 -480 -90
-591 -166 l-42 -28 -208 104 c-115 58 -216 105 -225 105 -35 0 -41 -25 -19
-81 11 -30 20 -55 20 -56 0 -8 -62 0 -142 17 -181 41 -212 14 -106 -95 41 -41
59 -66 51 -70 -8 -2 -23 -20 -34 -39 -13 -22 -33 -39 -55 -46 -47 -16 -173
-144 -202 -206 -13 -27 -30 -61 -37 -75 -18 -32 -65 -212 -65 -246 0 -30 -69
-163 -85 -163 -5 -1 -46 -7 -90 -16 -90 -17 -205 -29 -410 -44 -294 -21 -765
-73 -785 -85 -5 -3 -54 -12 -107 -20 -104 -16 -167 -28 -248 -51 -55 -15 -195
-46 -290 -64 -33 -6 -80 -17 -105 -25 -175 -51 -276 -75 -350 -80 -47 -4 -119
-14 -160 -22 -41 -8 -84 -16 -95 -18 -53 -7 -171 -47 -226 -76 -69 -37 -134
-105 -143 -150 -20 -101 29 -283 101 -378 20 -26 29 -52 34 -101 4 -36 19 -91
33 -122 14 -31 26 -60 26 -64 0 -8 164 -251 188 -279 66 -75 253 -213 342
-252 30 -13 76 -35 102 -49 65 -33 162 -68 228 -83 30 -7 63 -15 72 -17 10 -3
36 -40 59 -82 46 -85 121 -194 156 -230 21 -21 22 -25 8 -45 -34 -48 -10 -78
46 -58 18 6 34 10 36 8 2 -2 -3 -21 -10 -43 -22 -62 -29 -122 -15 -130 7 -4
16 0 22 11 23 40 88 103 113 109 34 9 37 3 18 -34 -22 -43 -7 -60 32 -35 47
31 148 54 193 44 21 -5 132 -23 247 -40 198 -30 225 -31 558 -34 193 -2 388
-8 435 -14 47 -6 159 -16 250 -21 209 -12 598 -47 670 -61 253 -47 272 -53
370 -124 51 -37 133 -92 183 -122 49 -30 122 -76 162 -103 40 -27 110 -72 156
-100 46 -28 122 -78 169 -112 47 -33 168 -116 270 -184 241 -160 234 -155 276
-230 20 -35 51 -82 69 -104 54 -65 68 -115 62 -222 -6 -109 -33 -381 -47 -486
-25 -185 -30 -253 -20 -272 16 -30 29 -24 50 22 l20 43 0 -65 c3 -241 47 -314
86 -142 l17 77 14 -55 c8 -30 18 -73 24 -95 5 -22 21 -73 36 -113 30 -83 53
-94 64 -29 3 20 8 39 10 41 2 2 297 -243 654 -546 1556 -1317 2243 -1896 2288
-1929 89 -63 121 -78 190 -90 128 -21 231 11 368 114 88 66 438 361 2274 1915
358 302 652 548 654 546 2 -2 7 -21 10 -41 11 -65 34 -54 64 29 15 40 31 91
36 113 6 22 16 65 24 95 l14 55 17 -77 c19 -80 32 -103 55 -89 14 9 29 122 31
231 l0 65 20 -42 c21 -47 34 -53 50 -23 10 19 5 87 -20 272 -14 105 -41 377
-47 486 -6 107 8 157 62 222 18 22 49 69 69 104 42 75 35 70 276 230 102 68
223 151 270 184 47 34 123 84 169 112 46 28 116 73 156 100 40 27 113 73 162
103 50 30 132 85 183 122 88 64 98 68 204 92 61 13 138 28 171 33 93 15 482
49 665 60 91 5 203 15 250 21 47 6 243 12 435 14 333 3 360 4 558 34 115 17
226 35 247 40 45 10 146 -13 193 -44 39 -25 54 -8 32 35 -19 37 -16 43 18 34
25 -6 90 -69 113 -109 6 -11 15 -15 22 -11 14 8 7 68 -15 130 -7 22 -12 41
-10 43 2 2 18 -2 36 -8 56 -20 80 10 46 58 -14 20 -13 24 8 45 35 36 110 145
156 230 23 42 49 79 59 82 9 2 42 10 72 17 66 15 163 50 228 83 26 14 72 36
102 49 89 39 276 177 342 252 24 28 188 271 188 279 0 4 12 33 26 64 14 31 29
86 33 122 5 49 14 75 34 101 72 95 121 277 101 378 -9 45 -74 113 -143 150
-55 29 -173 69 -226 76 -11 2 -54 10 -95 18 -41 8 -113 18 -160 22 -74 5 -175
29 -350 80 -25 8 -72 19 -105 25 -89 17 -228 48 -335 75 -52 13 -141 31 -198
39 -56 8 -106 18 -111 21 -21 12 -492 64 -786 85 -205 15 -320 27 -410 44 -44
9 -85 15 -90 16 -16 0 -85 133 -85 163 0 34 -47 214 -65 246 -7 14 -24 48 -37
75 -29 62 -155 190 -202 206 -22 7 -42 24 -55 46 -11 19 -26 37 -34 39 -8 4
10 29 51 70 106 109 75 136 -106 95 -80 -17 -142 -25 -142 -17 0 1 9 26 20 56
22 56 16 81 -19 81 -9 0 -110 -47 -225 -105 l-208 -104 -42 28 c-111 76 -353
144 -591 166 -189 17 -280 44 -271 79 3 12 13 74 22 139 14 111 79 396 104
462 6 17 31 93 55 170 74 240 113 345 190 505 70 146 74 157 65 195 -10 43
-32 65 -65 65 -41 0 -202 -89 -335 -185 -348 -252 -376 -277 -538 -477 -53
-66 -106 -132 -118 -146 l-21 -25 19 109 c27 150 26 308 -2 396 -27 89 -47
100 -99 59 -46 -37 -129 -154 -177 -251 -37 -76 -83 -145 -150 -225 -23 -27
-92 -120 -153 -205 -62 -85 -139 -179 -171 -207 -32 -29 -75 -79 -95 -110 -21
-32 -51 -71 -66 -88 -55 -59 -85 -166 -68 -245 14 -65 -14 -119 -99 -190 -58
-49 -282 -252 -399 -364 -42 -39 -43 -40 -64 -20 -11 10 -27 31 -35 46 -17 33
-3 78 60 188 24 41 64 114 89 161 25 47 57 103 71 124 15 21 34 63 42 93 20
68 9 84 -35 53 l-31 -22 -10 28 c-6 15 -15 36 -20 45 -14 24 -12 56 5 103 15
42 20 236 9 308 -7 41 -23 49 -31 16 -4 -14 -18 18 -45 102 -43 135 -49 160
-72 294 -9 50 -28 151 -42 225 -39 198 -43 229 -59 504 -21 348 -28 379 -102
469 -27 34 -29 54 -7 85 21 30 12 49 -25 57 -36 8 -38 20 -11 55 21 27 26 50
10 50 -5 0 -40 -20 -77 -44 -45 -29 -107 -87 -180 -168 -145 -159 -167 -188
-255 -339 -40 -70 -104 -173 -142 -230 -38 -57 -89 -149 -113 -204 -24 -55
-58 -127 -75 -160 -17 -33 -44 -91 -59 -129 -16 -38 -36 -74 -45 -81 -34 -24
-123 -533 -124 -706 0 -15 -10 -14 -82 8 -170 51 -229 76 -335 145 -59 39
-114 73 -120 75 -20 8 -15 -35 7 -67 l19 -27 -43 8 c-23 4 -91 24 -149 45
-140 48 -175 35 -87 -32 l35 -26 -90 7 c-49 3 -102 9 -117 12 -21 4 -28 2 -28
-11 0 -9 9 -21 20 -28 33 -21 23 -28 -42 -28 -61 -1 -77 -3 -200 -31 -32 -7
-60 -10 -64 -6 -4 4 -13 69 -20 144 -13 150 -80 494 -101 521 -20 26 -33 -2
-33 -73 l0 -60 -31 85 c-16 47 -41 119 -55 160 -14 41 -41 111 -58 155 -18 44
-41 112 -51 150 -17 68 -62 157 -111 223 -41 53 -55 36 -29 -33 16 -42 -77 95
-142 210 -84 147 -114 188 -256 343 -128 142 -268 245 -267 200z m3310 -621
c0 -8 -16 -51 -37 -98 -83 -193 -273 -710 -273 -744 0 -13 6 -25 14 -28 11 -4
5 -32 -29 -134 -58 -173 -79 -265 -72 -316 6 -46 14 -55 148 -163 56 -45 93
-88 147 -167 39 -58 77 -108 84 -110 7 -3 4 -6 -7 -6 -33 -1 -120 71 -290 241
l-159 160 2 47 c2 44 71 340 92 397 8 21 7 29 -6 38 -14 11 -10 28 36 166 68
203 125 342 216 523 70 141 110 205 127 206 4 1 7 -5 7 -12z m3978 -2553 c58
-40 80 -171 46 -283 -11 -40 -21 -54 -42 -62 -38 -15 -693 -31 -709 -17 -26
21 -24 48 8 100 55 92 199 203 308 237 127 41 347 55 389 25z m-3732 -127 c57
-112 87 -188 175 -444 39 -114 99 -269 134 -343 86 -188 187 -480 226 -653 14
-66 12 -69 -52 -87 -20 -6 -43 -18 -50 -27 -22 -25 -25 -484 -5 -666 8 -78 18
-205 21 -282 9 -202 49 -354 115 -441 34 -44 36 -54 15 -54 -46 0 -147 105
-174 180 -7 19 -17 100 -21 180 -5 80 -17 226 -26 325 -19 194 -25 647 -11
748 9 63 25 85 68 94 37 7 37 22 0 121 -16 42 -47 133 -69 202 -22 69 -64 179
-93 245 -28 66 -67 156 -86 200 -19 44 -61 177 -93 295 -59 217 -105 375 -133
462 -14 46 -12 71 5 46 5 -7 29 -52 54 -101z m-7059 92 c94 -13 195 -46 247
-82 166 -112 257 -241 203 -285 -16 -14 -671 2 -709 17 -21 8 -31 22 -42 62
-34 112 -12 243 46 283 27 19 138 21 255 5z m4178 -1215 c90 -15 170 -46 212
-81 31 -26 91 -159 108 -240 19 -87 19 -123 0 -150 -13 -19 -20 -20 -47 -12
-18 5 -64 9 -101 9 -134 0 -204 17 -312 77 -176 97 -335 192 -335 201 0 3 19
26 43 51 23 25 51 57 62 71 25 32 70 64 110 78 44 16 158 14 260 -4z m2358
-48 c21 -10 51 -33 66 -50 15 -17 49 -54 75 -82 25 -28 46 -53 46 -56 0 -9
-159 -104 -335 -201 -108 -60 -178 -77 -312 -77 -37 0 -83 -4 -101 -9 -27 -8
-34 -7 -47 12 -30 42 -7 173 52 298 52 111 100 143 265 174 102 19 242 15 291
-9z m650 -1669 c22 -71 43 -229 42 -302 -2 -75 -16 -194 -25 -200 -4 -2 -16
30 -28 73 -11 42 -28 104 -37 137 -12 43 -16 80 -12 130 8 96 28 225 36 225 3
0 14 -28 24 -63z m-1511 -491 c83 -16 187 -53 260 -93 57 -31 154 -131 209
-216 86 -133 109 -297 57 -409 -29 -63 -67 -93 -156 -122 -59 -20 -109 -13
-183 24 -21 11 -50 20 -64 20 -35 0 -128 -49 -194 -101 -60 -48 -111 -139
-111 -197 0 -84 -50 -132 -137 -132 -69 1 -99 29 -74 69 8 12 13 11 29 -9 46
-56 108 18 123 145 4 41 17 91 28 113 26 51 119 125 197 156 70 28 213 46 315
39 117 -9 155 32 166 174 7 92 -8 150 -57 223 -45 66 -136 150 -195 180 -80
40 -193 78 -263 89 -39 6 -159 11 -266 11 -124 0 -196 4 -196 10 0 6 3 10 8
11 4 1 36 7 72 14 92 17 342 18 432 1z m1263 -43 c-18 -75 -20 -81 -87 -198
-82 -144 -86 -163 -64 -342 33 -277 38 -333 32 -349 -4 -9 -9 -15 -12 -12 -9
10 -64 231 -75 303 -6 39 -19 140 -28 225 l-17 154 70 76 c39 42 96 104 126
138 30 34 58 62 62 62 3 0 0 -26 -7 -57z m-238 -885 c-8 -18 -37 -60 -64 -93
-72 -87 -182 -243 -406 -580 -128 -192 -173 -239 -262 -281 -185 -85 -306
-106 -437 -73 -109 27 -122 34 -218 116 -94 80 -145 139 -130 148 14 9 44 -10
129 -81 41 -35 105 -78 141 -96 62 -31 70 -33 170 -32 94 1 115 5 204 37 55
20 123 52 151 71 58 38 148 151 210 261 97 175 338 496 448 596 73 68 90 70
64 7z"/>
</g>
</svg>
