<svg width="800" height="550" xmlns="http://www.w3.org/2000/svg">

 <g>
  <title>Layer 1</title>
  <g transform="rotate(-0.189704 402.108 160.134)" stroke="null">
   <g stroke="null" fill="#000000" transform="translate(0 1130) scale(0.1 -0.1)">
    <path stroke="null" d="m3302.11148,11252.28718c0,-3.36501 3.60484,-11.53718 8.01075,-18.2672c10.81451,-16.82506 10.01343,-22.59365 -4.40591,-26.43937c-14.81988,-3.84573 -18.42472,-12.97933 -10.01343,-27.4008c8.81182,-14.90219 8.01075,-24.51651 -2.80376,-40.86085c-29.63977,-43.26443 -32.44353,-58.16662 -40.85481,-225.45574c-7.20967,-146.13762 -7.20967,-147.09905 -40.05374,-343.23112c-3.2043,-20.19007 -6.00806,-41.82228 -6.00806,-48.07159c0,-12.97933 -32.84407,-141.33046 -43.25804,-168.25055c-8.81182,-23.07436 -11.21505,-98.54675 -4.80645,-140.36903c4.00537,-24.99722 4.00537,-35.57297 0.80107,-43.74514c-2.40322,-5.76859 -6.4086,-16.82506 -8.81182,-24.03579l-4.00537,-13.46004l-12.41666,10.57575c-17.62364,14.90219 -22.02956,7.21074 -14.01881,-25.47794c3.2043,-14.42148 11.21505,-34.61154 16.82257,-45.18729c6.00806,-10.09503 22.83063,-45.66801 37.65051,-78.8374c14.81988,-33.16939 35.24729,-77.87597 45.26072,-99.02747c22.43009,-48.07159 26.43547,-68.74237 16.0215,-79.79883c-6.80914,-7.69145 -11.21505,-3.36501 -84.11285,76.91454c-42.05643,46.62944 -86.51608,94.70102 -98.5322,106.71892c-29.23923,28.84295 -40.85481,56.72447 -35.24729,86.52885c6.80914,37.97655 -5.20699,89.41315 -27.23654,117.77539c-6.00806,8.17217 -18.02418,26.92009 -26.43547,42.303c-8.01075,14.90219 -25.23386,38.93798 -38.05105,52.87874c-12.8172,13.46004 -43.65858,58.64733 -68.49189,99.50818c-24.43278,40.86085 -52.06986,85.56742 -61.28222,98.54675c-27.23654,39.4187 -46.0618,73.54953 -59.68007,107.19964c-16.42203,42.303 -54.47308,106.2382 -72.49727,123.06326c-20.02687,17.78649 -27.63708,12.0179 -38.45159,-29.80438c-11.21505,-42.303 -11.61558,-118.2561 -0.80107,-190.36348l7.61021,-52.39803l-8.41129,12.0179c-4.80645,6.73002 -26.03493,37.97655 -47.26341,69.7038c-65.68813,97.58532 -74.49995,107.19964 -215.48911,229.78218c-53.27147,46.14872 -117.75799,88.93243 -134.18002,88.93243c-13.21773,0 -22.02956,-10.57575 -26.03493,-31.24653c-3.60484,-18.2672 -2.00269,-23.55508 26.03493,-93.73959c30.84138,-76.91454 46.46234,-127.3897 76.1021,-242.76151c9.6129,-37.01512 19.62633,-73.54953 22.02956,-81.7217c10.01343,-31.72725 36.04836,-168.73127 41.65589,-222.09073c3.60484,-31.24653 7.61021,-61.05091 8.81182,-66.8195c3.60484,-16.82506 -32.84407,-29.80438 -108.54563,-37.97655c-95.3279,-10.57575 -192.25795,-43.26443 -236.71759,-79.79883l-16.82257,-13.46004l-83.31178,49.99445c-46.0618,27.88152 -86.51608,50.47517 -90.12091,50.47517c-14.01881,0 -16.42203,-12.0179 -7.61021,-38.93798c4.40591,-14.42148 8.01075,-26.43937 8.01075,-26.92009c0,-3.84573 -24.83332,0 -56.87631,8.17217c-72.49727,19.70935 -84.91393,6.73002 -42.45696,-45.66801c16.42203,-19.70935 23.63171,-31.72725 20.42741,-33.65011c-3.2043,-0.96143 -9.21236,-9.61432 -13.61827,-18.74792c-5.20699,-10.57575 -13.21773,-18.74792 -22.02956,-22.11293c-18.82526,-7.69145 -69.29297,-69.22308 -80.90855,-99.02747c-5.20699,-12.97933 -12.01612,-29.32367 -14.81988,-36.05369c-7.20967,-15.38291 -26.03493,-101.91176 -26.03493,-118.2561c0,-14.42148 -27.63708,-78.35668 -34.04568,-78.35668c-2.00269,-0.48072 -18.42472,-3.36501 -36.04836,-7.69145c-36.04836,-8.17217 -82.11016,-13.94076 -164.22033,-21.1515c-117.75799,-10.09503 -306.4111,-35.09226 -314.42185,-40.86085c-2.00269,-1.44215 -21.62902,-5.76859 -42.8575,-9.61432c-41.65589,-7.69145 -66.88974,-13.46004 -99.33327,-24.51651c-22.02956,-7.21074 -78.10479,-22.11293 -116.15584,-30.76581c-13.21773,-2.8843 -32.04299,-8.17217 -42.05643,-12.0179c-70.09404,-24.51651 -110.54832,-36.05369 -140.18808,-38.45727c-18.82526,-1.92286 -47.66395,-6.73002 -64.08598,-10.57575c-16.42203,-3.84573 -33.64514,-7.69145 -38.05105,-8.65289c-21.22848,-3.36501 -68.49189,-22.59365 -90.52145,-36.53441c-27.63708,-17.78649 -53.67201,-50.47517 -57.27685,-72.10738c-8.01075,-48.5523 11.61558,-136.04259 40.45428,-181.71059c8.01075,-12.49861 11.61558,-24.99722 13.61827,-48.5523c1.60215,-17.30577 7.61021,-43.74514 13.21773,-58.64733c5.60752,-14.90219 10.41397,-28.84295 10.41397,-30.76581c0,-3.84573 65.68813,-120.65968 75.30103,-134.11972c26.43547,-36.05369 101.33596,-102.39248 136.98379,-121.1404c12.01612,-6.24931 30.44084,-16.82506 40.85481,-23.55508c26.03493,-15.86362 64.88706,-32.68868 91.32252,-39.89942c12.01612,-3.36501 25.23386,-7.21074 28.83869,-8.17217c4.00537,-1.44215 14.41935,-19.22863 23.63171,-39.4187c18.42472,-40.86085 48.46502,-93.25888 62.48383,-110.56465c8.41129,-10.09503 8.81182,-12.0179 3.2043,-21.63221c-13.61827,-23.07436 -4.00537,-37.49584 18.42472,-27.88152c7.20967,2.8843 13.61827,4.80716 14.41935,3.84573c0.80107,-0.96143 -1.20161,-10.09503 -4.00537,-20.67078c-8.81182,-29.80438 -11.61558,-58.64733 -6.00806,-62.49306c2.80376,-1.92286 6.4086,0 8.81182,5.28787c9.21236,19.22863 35.24729,49.51373 45.26072,52.39803c13.61827,4.32644 14.81988,1.44215 7.20967,-16.34434c-8.81182,-20.67078 -2.80376,-28.84295 12.8172,-16.82506c18.82526,14.90219 59.27953,25.95866 77.30372,21.1515c8.41129,-2.40358 52.87093,-11.05646 98.93273,-19.22863c79.3064,-14.42148 90.12091,-14.90219 223.49986,-16.34434c77.30372,-0.96143 155.40851,-3.84573 174.23376,-6.73002c18.82526,-2.8843 63.68544,-7.69145 100.13435,-10.09503c83.71231,-5.76859 239.52136,-22.59365 268.36005,-29.32367c101.33596,-22.59365 108.94617,-25.47794 148.19883,-59.60877c20.42741,-17.78649 53.27147,-44.22586 73.29834,-58.64733c19.62633,-14.42148 48.86556,-36.53441 64.88706,-49.51373c16.0215,-12.97933 44.05911,-34.61154 62.48383,-48.07159c18.42472,-13.46004 48.86556,-37.49584 67.69082,-53.84018c18.82526,-15.86362 67.29028,-55.76304 108.14509,-88.45172c96.52951,-76.91454 93.72575,-74.51096 110.54832,-110.56465c8.01075,-16.82506 20.42741,-39.4187 27.63708,-49.99445c21.62902,-31.24653 27.23654,-55.28232 24.83332,-106.71892c-2.40322,-52.39803 -13.21773,-183.15274 -18.82526,-233.62791c-10.01343,-88.93243 -12.01612,-121.62111 -8.01075,-130.75471c6.4086,-14.42148 11.61558,-11.53718 20.02687,10.57575l8.01075,20.67078l0,-31.24653c1.20161,-115.85252 18.82526,-150.94478 34.44622,-68.26165l6.80914,37.01512l5.60752,-26.43937c3.2043,-14.42148 7.20967,-35.09226 9.6129,-45.66801c2.00269,-10.57575 8.41129,-35.09226 14.41935,-54.32089c12.01612,-39.89942 21.22848,-45.18729 25.63439,-13.94076c1.20161,9.61432 3.2043,18.74792 4.00537,19.70935c0.80107,0.96143 118.9596,-116.81395 261.95145,-262.47086c623.23617,-633.10278 898.40536,-911.43727 916.42954,-927.30089c35.64783,-30.2851 48.46502,-37.49584 76.1021,-43.26443c51.26879,-10.09503 92.52414,5.28787 147.39776,54.80161c35.24729,31.72725 175.43537,173.53842 910.82201,920.57087c143.39238,145.17619 261.15038,263.43229 261.95145,262.47086c0.80107,-0.96143 2.80376,-10.09503 4.00537,-19.70935c4.40591,-31.24653 13.61827,-25.95866 25.63439,13.94076c6.00806,19.22863 12.41666,43.74514 14.41935,54.32089c2.40322,10.57575 6.4086,31.24653 9.6129,45.66801l5.60752,26.43937l6.80914,-37.01512c7.61021,-38.45727 12.8172,-49.51373 22.02956,-42.78371c5.60752,4.32644 11.61558,58.64733 12.41666,111.04536l0,31.24653l8.01075,-20.19007c8.41129,-22.59365 13.61827,-25.47794 20.02687,-11.05646c4.00537,9.1336 2.00269,41.82228 -8.01075,130.75471c-5.60752,50.47517 -16.42203,181.22988 -18.82526,233.62791c-2.40322,51.4366 3.2043,75.47239 24.83332,106.71892c7.20967,10.57575 19.62633,33.16939 27.63708,49.99445c16.82257,36.05369 14.01881,33.65011 110.54832,110.56465c40.85481,32.68868 89.31984,72.58809 108.14509,88.45172c18.82526,16.34434 49.2661,40.38013 67.69082,53.84018c18.42472,13.46004 46.46234,35.09226 62.48383,48.07159c16.0215,12.97933 45.26072,35.09226 64.88706,49.51373c20.02687,14.42148 52.87093,40.86085 73.29834,58.64733c35.24729,30.76581 39.25266,32.68868 81.70963,44.22586c24.43278,6.24931 55.27416,13.46004 68.49189,15.86362c37.24998,7.21074 193.05902,23.55508 266.35736,28.84295c36.4489,2.40358 81.30909,7.21074 100.13435,10.09503c18.82526,2.8843 97.33058,5.76859 174.23376,6.73002c133.37895,1.44215 144.19346,1.92286 223.49986,16.34434c46.0618,8.17217 90.52145,16.82506 98.93273,19.22863c18.02418,4.80716 58.47846,-6.24931 77.30372,-21.1515c15.62096,-12.0179 21.62902,-3.84573 12.8172,16.82506c-7.61021,17.78649 -6.4086,20.67078 7.20967,16.34434c10.01343,-2.8843 36.04836,-33.16939 45.26072,-52.39803c2.40322,-5.28787 6.00806,-7.21074 8.81182,-5.28787c5.60752,3.84573 2.80376,32.68868 -6.00806,62.49306c-2.80376,10.57575 -4.80645,19.70935 -4.00537,20.67078c0.80107,0.96143 7.20967,-0.96143 14.41935,-3.84573c22.43009,-9.61432 32.04299,4.80716 18.42472,27.88152c-5.60752,9.61432 -5.20699,11.53718 3.2043,21.63221c14.01881,17.30577 44.05911,69.7038 62.48383,110.56465c9.21236,20.19007 19.62633,37.97655 23.63171,39.4187c3.60484,0.96143 16.82257,4.80716 28.83869,8.17217c26.43547,7.21074 65.28759,24.03579 91.32252,39.89942c10.41397,6.73002 28.83869,17.30577 40.85481,23.55508c35.64783,18.74792 110.54832,85.08671 136.98379,121.1404c9.6129,13.46004 75.30103,130.274 75.30103,134.11972c0,1.92286 4.80645,15.86362 10.41397,30.76581c5.60752,14.90219 11.61558,41.34156 13.21773,58.64733c2.00269,23.55508 5.60752,36.05369 13.61827,48.5523c28.83869,45.66801 48.46502,133.15829 40.45428,181.71059c-3.60484,21.63221 -29.63977,54.32089 -57.27685,72.10738c-22.02956,13.94076 -69.29297,33.16939 -90.52145,36.53441c-4.40591,0.96143 -21.62902,4.80716 -38.05105,8.65289c-16.42203,3.84573 -45.26072,8.65289 -64.08598,10.57575c-29.63977,2.40358 -70.09404,13.94076 -140.18808,38.45727c-10.01343,3.84573 -28.83869,9.1336 -42.05643,12.0179c-35.64783,8.17217 -91.32252,23.07436 -134.18002,36.05369c-20.82794,6.24931 -56.47577,14.90219 -79.3064,18.74792c-22.43009,3.84573 -42.45696,8.65289 -44.45965,10.09503c-8.41129,5.76859 -197.06439,30.76581 -314.82239,40.86085c-82.11016,7.21074 -128.17196,12.97933 -164.22033,21.1515c-17.62364,4.32644 -34.04568,7.21074 -36.04836,7.69145c-6.4086,0 -34.04568,63.93521 -34.04568,78.35668c0,16.34434 -18.82526,102.87319 -26.03493,118.2561c-2.80376,6.73002 -9.6129,23.07436 -14.81988,36.05369c-11.61558,29.80438 -62.08329,91.33601 -80.90855,99.02747c-8.81182,3.36501 -16.82257,11.53718 -22.02956,22.11293c-4.40591,9.1336 -10.41397,17.78649 -13.61827,18.74792c-3.2043,1.92286 4.00537,13.94076 20.42741,33.65011c42.45696,52.39803 30.0403,65.37736 -42.45696,45.66801c-32.04299,-8.17217 -56.87631,-12.0179 -56.87631,-8.17217c0,0.48072 3.60484,12.49861 8.01075,26.92009c8.81182,26.92009 6.4086,38.93798 -7.61021,38.93798c-3.60484,0 -44.05911,-22.59365 -90.12091,-50.47517l-83.31178,-49.99445l-16.82257,13.46004c-44.45965,36.53441 -141.3897,69.22308 -236.71759,79.79883c-75.70157,8.17217 -112.15047,21.1515 -108.54563,37.97655c1.20161,5.76859 5.20699,35.57297 8.81182,66.8195c5.60752,53.35946 31.64245,190.36348 41.65589,222.09073c2.40322,8.17217 12.41666,44.70657 22.02956,81.7217c29.63977,115.37181 45.26072,165.84697 76.1021,242.76151c28.03762,70.18452 29.63977,75.47239 26.03493,93.73959c-4.00537,20.67078 -12.8172,31.24653 -26.03493,31.24653c-16.42203,0 -80.90855,-42.78371 -134.18002,-88.93243c-139.38701,-121.1404 -150.60206,-133.15829 -215.48911,-229.30146c-21.22848,-31.72725 -42.45696,-63.45449 -47.26341,-70.18452l-8.41129,-12.0179l7.61021,52.39803c10.81451,72.10738 10.41397,148.06048 -0.80107,190.36348c-10.81451,42.78371 -18.82526,48.07159 -39.6532,28.36224c-18.42472,-17.78649 -51.66932,-74.03024 -70.89512,-120.65968c-14.81988,-36.53441 -33.2446,-69.7038 -60.08061,-108.16107c-9.21236,-12.97933 -36.84944,-57.6859 -61.28222,-98.54675c-24.83332,-40.86085 -55.6747,-86.04814 -68.49189,-99.50818c-12.8172,-13.94076 -30.0403,-37.97655 -38.05105,-52.87874c-8.41129,-15.38291 -20.42741,-34.13083 -26.43547,-42.303c-22.02956,-28.36224 -34.04568,-79.79883 -27.23654,-117.77539c5.60752,-31.24653 -5.60752,-57.20519 -39.6532,-91.33601c-23.23117,-23.55508 -112.95154,-121.1404 -159.81442,-174.98057c-16.82257,-18.74792 -17.22311,-19.22863 -25.63439,-9.61432c-4.40591,4.80716 -10.81451,14.90219 -14.01881,22.11293c-6.80914,15.86362 -1.20161,37.49584 24.03224,90.37458c9.6129,19.70935 25.63439,54.80161 35.64783,77.39525c10.01343,22.59365 22.83063,49.51373 28.43815,59.60877c6.00806,10.09503 13.61827,30.2851 16.82257,44.70657c8.01075,32.68868 3.60484,40.38013 -14.01881,25.47794l-12.41666,-10.57575l-4.00537,13.46004c-2.40322,7.21074 -6.00806,17.30577 -8.01075,21.63221c-5.60752,11.53718 -4.80645,26.92009 2.00269,49.51373c6.00806,20.19007 8.01075,113.44894 3.60484,148.06048c-2.80376,19.70935 -9.21236,23.55508 -12.41666,7.69145c-1.60215,-6.73002 -7.20967,8.65289 -18.02418,49.03302c-17.22311,64.89664 -19.62633,76.91454 -28.83869,141.33046c-3.60484,24.03579 -11.21505,72.58809 -16.82257,108.16107c-15.62096,95.18174 -17.22311,110.08393 -23.63171,242.28079c-8.41129,167.28912 -11.21505,182.19131 -40.85481,225.45574c-10.81451,16.34434 -11.61558,25.95866 -2.80376,40.86085c8.41129,14.42148 4.80645,23.55508 -10.01343,27.4008c-14.41935,3.84573 -15.22042,9.61432 -4.40591,26.43937c8.41129,12.97933 10.41397,24.03579 4.00537,24.03579c-2.00269,0 -16.0215,-9.61432 -30.84138,-21.1515c-18.02418,-13.94076 -42.8575,-41.82228 -72.09673,-80.76026c-58.07792,-76.43382 -66.88974,-90.37458 -102.13703,-162.96268c-16.0215,-33.65011 -41.65589,-83.16384 -56.87631,-110.56465c-15.22042,-27.4008 -35.64783,-71.62666 -45.26072,-98.06603c-9.6129,-26.43937 -23.23117,-61.05091 -30.0403,-76.91454c-6.80914,-15.86362 -17.62364,-43.74514 -23.63171,-62.01235c-6.4086,-18.2672 -14.41935,-35.57297 -18.02418,-38.93798c-13.61827,-11.53718 -49.2661,-256.22155 -49.66664,-339.3854c0,-7.21074 -4.00537,-6.73002 -32.84407,3.84573c-68.09136,24.51651 -91.72306,36.53441 -134.18002,69.7038c-23.63171,18.74792 -45.66126,35.09226 -48.06449,36.05369c-8.01075,3.84573 -6.00806,-16.82506 2.80376,-32.20796l7.61021,-12.97933l-17.22311,3.84573c-9.21236,1.92286 -36.4489,11.53718 -59.68007,21.63221c-56.07523,23.07436 -70.09404,16.82506 -34.84675,-15.38291l14.01881,-12.49861l-36.04836,3.36501c-19.62633,1.44215 -40.85481,4.32644 -46.86287,5.76859c-8.41129,1.92286 -11.21505,0.96143 -11.21505,-5.28787c0,-4.32644 3.60484,-10.09503 8.01075,-13.46004c13.21773,-10.09503 9.21236,-13.46004 -16.82257,-13.46004c-24.43278,-0.48072 -30.84138,-1.44215 -80.10748,-14.90219c-12.8172,-3.36501 -24.03224,-4.80716 -25.63439,-2.8843c-1.60215,1.92286 -5.20699,33.16939 -8.01075,69.22308c-5.20699,72.10738 -32.04299,237.47363 -40.45428,250.45296c-8.01075,12.49861 -13.21773,-0.96143 -13.21773,-35.09226l0,-28.84295l-12.41666,40.86085c-6.4086,22.59365 -16.42203,57.20519 -22.02956,76.91454c-5.60752,19.70935 -16.42203,53.35946 -23.23117,74.51096c-7.20967,21.1515 -16.42203,53.84018 -20.42741,72.10738c-6.80914,32.68868 -24.83332,75.47239 -44.45965,107.19964c-16.42203,25.47794 -22.02956,17.30577 -11.61558,-15.86362c6.4086,-20.19007 -30.84138,45.66801 -56.87631,100.95033c-33.64514,70.66523 -45.66126,90.37458 -102.53757,164.88554c-51.26879,68.26165 -107.34402,117.77539 -106.94348,96.14317zm1325.77875,-298.52455c0,-3.84573 -6.4086,-24.51651 -14.81988,-47.11015c-33.2446,-92.77816 -109.34671,-341.30826 -109.34671,-357.6526c0,-6.24931 2.40322,-12.0179 5.60752,-13.46004c4.40591,-1.92286 2.00269,-15.38291 -11.61558,-64.41592c-23.23117,-83.16384 -31.64245,-127.3897 -28.83869,-151.90621c2.40322,-22.11293 5.60752,-26.43937 59.27953,-78.35668c22.43009,-21.63221 37.24998,-42.303 58.879,-80.27955c15.62096,-27.88152 30.84138,-51.91731 33.64514,-52.87874c2.80376,-1.44215 1.60215,-2.8843 -2.80376,-2.8843c-13.21773,-0.48072 -48.06449,34.13083 -116.15584,115.85252l-63.68544,76.91454l0.80107,22.59365c0.80107,21.1515 28.43815,163.44339 36.84944,190.8442c3.2043,10.09503 2.80376,13.94076 -2.40322,18.2672c-5.60752,5.28787 -4.00537,13.46004 14.41935,79.79883c27.23654,97.58532 50.06717,164.40482 86.51608,251.41439c28.03762,67.78094 44.05911,98.54675 50.86825,99.02747c1.60215,0.48072 2.80376,-2.40358 2.80376,-5.76859zm1593.33772,-1227.26758c23.23117,-19.22863 32.04299,-82.20241 18.42472,-136.04259c-4.40591,-19.22863 -8.41129,-25.95866 -16.82257,-29.80438c-15.22042,-7.21074 -277.57241,-14.90219 -283.98101,-8.17217c-10.41397,10.09503 -9.6129,23.07436 3.2043,48.07159c22.02956,44.22586 79.70694,97.58532 123.36551,113.92966c50.86825,19.70935 138.98647,26.43937 155.80904,12.0179zm-1494.80552,-61.05091c22.83063,-53.84018 34.84675,-90.37458 70.09404,-213.43784c15.62096,-54.80161 39.6532,-129.31257 53.67201,-164.88554c34.44622,-90.37458 74.90049,-230.74361 90.52145,-313.90745c5.60752,-31.72725 4.80645,-33.16939 -20.82794,-41.82228c-8.01075,-2.8843 -17.22311,-8.65289 -20.02687,-12.97933c-8.81182,-12.0179 -10.01343,-232.66647 -2.00269,-320.15676c3.2043,-37.49584 7.20967,-98.54675 8.41129,-135.56187c3.60484,-97.1046 19.62633,-170.17341 46.0618,-211.99569c13.61827,-21.1515 14.41935,-25.95866 6.00806,-25.95866c-18.42472,0 -58.879,50.47517 -69.69351,86.52885c-2.80376,9.1336 -6.80914,48.07159 -8.41129,86.52885c-2.00269,38.45727 -6.80914,108.64178 -10.41397,156.23265c-7.61021,93.25888 -10.01343,311.02316 -4.40591,359.57546c3.60484,30.2851 10.01343,40.86085 27.23654,45.18729c14.81988,3.36501 14.81988,10.57575 0,58.16662c-6.4086,20.19007 -18.82526,63.93521 -27.63708,97.1046c-8.81182,33.16939 -25.63439,86.04814 -37.24998,117.77539c-11.21505,31.72725 -26.836,74.99167 -34.44622,96.14317c-7.61021,21.1515 -24.43278,85.08671 -37.24998,141.81118c-23.63171,104.31534 -42.05643,180.26845 -53.27147,222.09073c-5.60752,22.11293 -4.80645,34.13083 2.00269,22.11293c2.00269,-3.36501 11.61558,-24.99722 21.62902,-48.5523zm-2827.3934,44.22586c37.65051,-6.24931 78.10479,-22.11293 98.93273,-39.4187c66.48921,-53.84018 102.93811,-115.85252 81.30909,-137.00402c-6.4086,-6.73002 -268.76059,0.96143 -283.98101,8.17217c-8.41129,3.84573 -12.41666,10.57575 -16.82257,29.80438c-13.61827,53.84018 -4.80645,116.81395 18.42472,136.04259c10.81451,9.1336 55.27416,10.09503 102.13703,2.40358zm1673.4452,-584.06977c36.04836,-7.21074 68.09136,-22.11293 84.91393,-38.93798c12.41666,-12.49861 36.4489,-76.43382 43.25804,-115.37181c7.61021,-41.82228 7.61021,-59.12805 0,-72.10738c-5.20699,-9.1336 -8.01075,-9.61432 -18.82526,-5.76859c-7.20967,2.40358 -25.63439,4.32644 -40.45428,4.32644c-53.67201,0 -81.70963,8.17217 -124.96766,37.01512c-70.49458,46.62944 -134.18002,92.29744 -134.18002,96.62389c0,1.44215 7.61021,12.49861 17.22311,24.51651c9.21236,12.0179 20.42741,27.4008 24.83332,34.13083c10.01343,15.38291 28.03762,30.76581 44.05911,37.49584c17.62364,7.69145 63.28491,6.73002 104.13972,-1.92286zm944.46716,-23.07436c8.41129,-4.80716 20.42741,-15.86362 26.43547,-24.03579c6.00806,-8.17217 19.62633,-25.95866 30.0403,-39.4187c10.01343,-13.46004 18.42472,-25.47794 18.42472,-26.92009c0,-4.32644 -63.68544,-49.99445 -134.18002,-96.62389c-43.25804,-28.84295 -71.29565,-37.01512 -124.96766,-37.01512c-14.81988,0 -33.2446,-1.92286 -40.45428,-4.32644c-10.81451,-3.84573 -13.61827,-3.36501 -18.82526,5.76859c-12.01612,20.19007 -2.80376,83.16384 20.82794,143.25333c20.82794,53.35946 40.05374,68.74237 106.14241,83.64456c40.85481,9.1336 96.93005,7.21074 116.55638,-4.32644zm260.3493,-802.31477c8.81182,-34.13083 17.22311,-110.08393 16.82257,-145.17619c-0.80107,-36.05369 -6.4086,-93.25888 -10.01343,-96.14317c-1.60215,-0.96143 -6.4086,14.42148 -11.21505,35.09226c-4.40591,20.19007 -11.21505,49.99445 -14.81988,65.85807c-4.80645,20.67078 -6.4086,38.45727 -4.80645,62.49306c3.2043,46.14872 11.21505,108.16107 14.41935,108.16107c1.20161,0 5.60752,-13.46004 9.6129,-30.2851zm-605.21199,-236.03149c33.2446,-7.69145 74.90049,-25.47794 104.13972,-44.70657c22.83063,-14.90219 61.68276,-62.97378 83.71231,-103.83463c34.44622,-63.93521 43.65858,-142.77261 22.83063,-196.61279c-11.61558,-30.2851 -26.836,-44.70657 -62.48383,-58.64733c-23.63171,-9.61432 -43.65858,-6.24931 -73.29834,11.53718c-8.41129,5.28787 -20.02687,9.61432 -25.63439,9.61432c-14.01881,0 -51.26879,-23.55508 -77.70425,-48.5523c-24.03224,-23.07436 -44.45965,-66.8195 -44.45965,-94.70102c0,-40.38013 -20.02687,-63.45449 -54.87362,-63.45449c-27.63708,0.48072 -39.6532,13.94076 -29.63977,33.16939c3.2043,5.76859 5.20699,5.28787 11.61558,-4.32644c18.42472,-26.92009 43.25804,8.65289 49.2661,69.7038c1.60215,19.70935 6.80914,43.74514 11.21505,54.32089c10.41397,24.51651 47.66395,60.08948 78.90586,74.99167c28.03762,13.46004 85.31446,22.11293 126.16928,18.74792c46.86287,-4.32644 62.08329,15.38291 66.48921,83.64456c2.80376,44.22586 -3.2043,72.10738 -22.83063,107.19964c-18.02418,31.72725 -54.47308,72.10738 -78.10479,86.52885c-32.04299,19.22863 -77.30372,37.49584 -105.34133,42.78371c-15.62096,2.8843 -63.68544,5.28787 -106.54294,5.28787c-49.66664,0 -78.50533,1.92286 -78.50533,4.80716c0,2.8843 1.20161,4.80716 3.2043,5.28787c1.60215,0.48072 14.41935,3.36501 28.83869,6.73002c36.84944,8.17217 136.98379,8.65289 173.03215,0.48072zm505.87872,-20.67078c-7.20967,-36.05369 -8.01075,-38.93798 -34.84675,-95.18174c-32.84407,-69.22308 -34.44622,-78.35668 -25.63439,-164.40482c13.21773,-133.15829 15.22042,-160.07838 12.8172,-167.76983c-1.60215,-4.32644 -3.60484,-7.21074 -4.80645,-5.76859c-3.60484,4.80716 -25.63439,111.04536 -30.0403,145.6569c-2.40322,18.74792 -7.61021,67.30022 -11.21505,108.16107l-6.80914,74.03024l28.03762,36.53441c15.62096,20.19007 38.45159,49.99445 50.46771,66.33879c12.01612,16.34434 23.23117,29.80438 24.83332,29.80438c1.20161,0 0,-12.49861 -2.80376,-27.4008zm-95.3279,-425.43353c-3.2043,-8.65289 -14.81988,-28.84295 -25.63439,-44.70657c-28.83869,-41.82228 -72.8978,-116.81395 -162.61818,-278.8152c-51.26879,-92.29744 -69.29297,-114.89109 -104.9408,-135.08116c-74.09942,-40.86085 -122.56444,-50.95588 -175.03484,-35.09226c-43.65858,12.97933 -48.86556,16.34434 -87.31715,55.76304c-37.65051,38.45727 -58.07792,66.8195 -52.06986,71.14595c5.60752,4.32644 17.62364,-4.80716 51.66932,-38.93798c16.42203,-16.82506 42.05643,-37.49584 56.47577,-46.14872c24.83332,-14.90219 28.03762,-15.86362 68.09136,-15.38291c37.65051,0.48072 46.0618,2.40358 81.70963,17.78649c22.02956,9.61432 49.2661,24.99722 60.48115,34.13083c23.23117,18.2672 59.27953,72.58809 84.11285,125.46684c38.85213,84.12528 135.38164,238.43507 179.44075,286.50665c29.23923,32.68868 36.04836,33.65011 25.63439,3.36501z"/>
   </g>
  </g>
 </g>
</svg>